# xmcd
#
# Track frame offsets:
#	150
#	12997
#	22022
#	34870
#	52014
#	66774
#	80194
#	96871
#	112554
#	126874
#	140319
#	154027
#	165733
#	183084
#	196990
#	208975
#	223133
#	233219
#	246870
#	264144
#
# Disc length: 3663 seconds
#
# Revision: 0
# Processed by: cddbd v1.5PL3 Copyright (c) Steve Scherf et al.
# Submitted via: dBpowerAMP V4.0
#
DISCID=180e4d14
DTITLE=Lowell Fulsom - I've Got The Blues (...And Then Some)(1)
DYEAR=2001
DGENRE=Blues
TTITLE0=Lady In The Rain
TTITLE1=Letter Home
TTITLE2=Too Soon
TTITLE3=Why Don't We Do It In The Road
TTITLE4=Sleeper
TTITLE5=How Do You Want Your Man
TTITLE6=Don't Leave Me
TTITLE7=Thug
TTITLE8=Do You Feel It?
TTITLE9=Don't Destroy Me
TTITLE10=Lonesome Christmas Part 1
TTITLE11=Lonesome Christmas Part 2
TTITLE12=Bluesway
TTITLE13=My Baby
TTITLE14=Man of Motion
TTITLE15=Teach Me
TTITLE16=Change of Heart
TTITLE17=Every Second a Fool is Born
TTITLE18=Look at you baby
TTITLE19=Fed Up
EXTD=
EXTT0=
EXTT1=
EXTT2=
EXTT3=
EXTT4=
EXTT5=
EXTT6=
EXTT7=
EXTT8=
EXTT9=
EXTT10=
EXTT11=
EXTT12=
EXTT13=
EXTT14=
EXTT15=
EXTT16=
EXTT17=
EXTT18=
EXTT19=
PLAYORDER=
